solid OpenSCAD_Model
  facet normal -1 0 0
    outer loop
      vertex -50 0 50
      vertex -50 50 150
      vertex -50 50 50
    endloop
  endfacet
  facet normal -1 -0 0
    outer loop
      vertex -50 50 150
      vertex -50 0 50
      vertex -50 0 150
    endloop
  endfacet
  facet normal 0 0 1
    outer loop
      vertex 0 50 150
      vertex 50 100 150
      vertex 0 100 150
    endloop
  endfacet
  facet normal 0 0 1
    outer loop
      vertex 50 100 150
      vertex 0 50 150
      vertex 50 0 150
    endloop
  endfacet
  facet normal 0 0 1
    outer loop
      vertex -50 0 150
      vertex 0 50 150
      vertex -50 50 150
    endloop
  endfacet
  facet normal 0 0 1
    outer loop
      vertex 0 50 150
      vertex -50 0 150
      vertex 50 0 150
    endloop
  endfacet
  facet normal 1 -0 0
    outer loop
      vertex 0 0 100
      vertex 0 50 50
      vertex 0 50 100
    endloop
  endfacet
  facet normal 1 0 0
    outer loop
      vertex 0 50 50
      vertex 0 0 100
      vertex 0 0 50
    endloop
  endfacet
  facet normal -1 0 0
    outer loop
      vertex 0 50 100
      vertex 0 100 150
      vertex 0 100 100
    endloop
  endfacet
  facet normal -1 -0 0
    outer loop
      vertex 0 100 150
      vertex 0 50 100
      vertex 0 50 150
    endloop
  endfacet
  facet normal 0 0 -1
    outer loop
      vertex -50 0 50
      vertex 0 50 50
      vertex 0 0 50
    endloop
  endfacet
  facet normal -0 0 -1
    outer loop
      vertex 0 50 50
      vertex -50 0 50
      vertex -50 50 50
    endloop
  endfacet
  facet normal 0 -1 0
    outer loop
      vertex -50 0 150
      vertex 0 0 100
      vertex 50 0 150
    endloop
  endfacet
  facet normal 0 -1 0
    outer loop
      vertex -50 0 50
      vertex 0 0 100
      vertex -50 0 150
    endloop
  endfacet
  facet normal 0 -1 -0
    outer loop
      vertex 0 0 100
      vertex -50 0 50
      vertex 0 0 50
    endloop
  endfacet
  facet normal 0 -1 -0
    outer loop
      vertex 50 0 150
      vertex 0 0 100
      vertex 50 0 100
    endloop
  endfacet
  facet normal 0 1 -0
    outer loop
      vertex 0 50 100
      vertex -50 50 150
      vertex 0 50 150
    endloop
  endfacet
  facet normal 0 1 0
    outer loop
      vertex -50 50 50
      vertex 0 50 100
      vertex 0 50 50
    endloop
  endfacet
  facet normal 0 1 0
    outer loop
      vertex 0 50 100
      vertex -50 50 50
      vertex -50 50 150
    endloop
  endfacet
  facet normal 1 -0 0
    outer loop
      vertex 50 0 150
      vertex 50 100 100
      vertex 50 100 150
    endloop
  endfacet
  facet normal 1 0 0
    outer loop
      vertex 50 100 100
      vertex 50 0 150
      vertex 50 0 100
    endloop
  endfacet
  facet normal 0 0 -1
    outer loop
      vertex 0 50 100
      vertex 50 0 100
      vertex 0 0 100
    endloop
  endfacet
  facet normal 0 0 -1
    outer loop
      vertex 50 0 100
      vertex 0 50 100
      vertex 50 100 100
    endloop
  endfacet
  facet normal -0 0 -1
    outer loop
      vertex 50 100 100
      vertex 0 50 100
      vertex 0 100 100
    endloop
  endfacet
  facet normal 0 1 -0
    outer loop
      vertex 50 100 100
      vertex 0 100 150
      vertex 50 100 150
    endloop
  endfacet
  facet normal 0 1 0
    outer loop
      vertex 0 100 150
      vertex 50 100 100
      vertex 0 100 100
    endloop
  endfacet
endsolid OpenSCAD_Model
