solid OpenSCAD_Model
  facet normal -1 0 0
    outer loop
      vertex 50 100 50
      vertex 50 150 0
      vertex 50 100 0
    endloop
  endfacet
  facet normal -1 0 0
    outer loop
      vertex 50 150 0
      vertex 50 100 50
      vertex 50 150 100
    endloop
  endfacet
  facet normal -1 0 0
    outer loop
      vertex 50 100 50
      vertex 50 50 100
      vertex 50 150 100
    endloop
  endfacet
  facet normal -1 0 0
    outer loop
      vertex 50 0 50
      vertex 50 50 100
      vertex 50 100 50
    endloop
  endfacet
  facet normal -1 0 0
    outer loop
      vertex 50 0 150
      vertex 50 50 100
      vertex 50 0 50
    endloop
  endfacet
  facet normal -1 0 0
    outer loop
      vertex 50 50 100
      vertex 50 0 150
      vertex 50 50 150
    endloop
  endfacet
  facet normal -0 0 1
    outer loop
      vertex 50 150 100
      vertex 100 50 100
      vertex 100 150 100
    endloop
  endfacet
  facet normal 0 0 1
    outer loop
      vertex 100 50 100
      vertex 50 150 100
      vertex 50 50 100
    endloop
  endfacet
  facet normal 1 0 0
    outer loop
      vertex 100 50 150
      vertex 100 0 150
      vertex 100 50 100
    endloop
  endfacet
  facet normal 1 0 0
    outer loop
      vertex 100 150 100
      vertex 100 100 50
      vertex 100 150 0
    endloop
  endfacet
  facet normal 1 -0 0
    outer loop
      vertex 100 50 100
      vertex 100 100 50
      vertex 100 150 100
    endloop
  endfacet
  facet normal 1 0 0
    outer loop
      vertex 100 0 50
      vertex 100 50 100
      vertex 100 0 150
    endloop
  endfacet
  facet normal 1 0 0
    outer loop
      vertex 100 50 100
      vertex 100 0 50
      vertex 100 100 50
    endloop
  endfacet
  facet normal 1 0 0
    outer loop
      vertex 100 150 0
      vertex 100 100 50
      vertex 100 100 0
    endloop
  endfacet
  facet normal 0 1 -0
    outer loop
      vertex 100 150 0
      vertex 50 150 100
      vertex 100 150 100
    endloop
  endfacet
  facet normal 0 1 0
    outer loop
      vertex 50 150 100
      vertex 100 150 0
      vertex 50 150 0
    endloop
  endfacet
  facet normal 0 0 -1
    outer loop
      vertex 50 100 0
      vertex 100 150 0
      vertex 100 100 0
    endloop
  endfacet
  facet normal -0 0 -1
    outer loop
      vertex 100 150 0
      vertex 50 100 0
      vertex 50 150 0
    endloop
  endfacet
  facet normal 0 -1 0
    outer loop
      vertex 50 100 0
      vertex 100 100 50
      vertex 50 100 50
    endloop
  endfacet
  facet normal 0 -1 -0
    outer loop
      vertex 100 100 50
      vertex 50 100 0
      vertex 100 100 0
    endloop
  endfacet
  facet normal 0 0 -1
    outer loop
      vertex 50 0 50
      vertex 100 100 50
      vertex 100 0 50
    endloop
  endfacet
  facet normal -0 0 -1
    outer loop
      vertex 100 100 50
      vertex 50 0 50
      vertex 50 100 50
    endloop
  endfacet
  facet normal 0 1 -0
    outer loop
      vertex 100 50 100
      vertex 50 50 150
      vertex 100 50 150
    endloop
  endfacet
  facet normal 0 1 0
    outer loop
      vertex 50 50 150
      vertex 100 50 100
      vertex 50 50 100
    endloop
  endfacet
  facet normal -0 0 1
    outer loop
      vertex 50 50 150
      vertex 100 0 150
      vertex 100 50 150
    endloop
  endfacet
  facet normal 0 0 1
    outer loop
      vertex 100 0 150
      vertex 50 50 150
      vertex 50 0 150
    endloop
  endfacet
  facet normal 0 -1 0
    outer loop
      vertex 50 0 50
      vertex 100 0 150
      vertex 50 0 150
    endloop
  endfacet
  facet normal 0 -1 -0
    outer loop
      vertex 100 0 150
      vertex 50 0 50
      vertex 100 0 50
    endloop
  endfacet
endsolid OpenSCAD_Model
